<mxfile host="Electron" modified="2023-08-24T18:55:03.554Z" agent="Mozilla/5.0 (Windows NT 10.0; Win64; x64) AppleWebKit/537.36 (KHTML, like Gecko) draw.io/21.6.8 Chrome/114.0.5735.289 Electron/25.5.0 Safari/537.36" etag="XPyYpztPNxuYBLBQkEHd" version="21.6.8" type="device">
  <diagram id="C5RBs43oDa-KdzZeNtuy" name="Page-1">
    <mxGraphModel dx="1036" dy="614" grid="1" gridSize="10" guides="1" tooltips="1" connect="1" arrows="1" fold="1" page="1" pageScale="1" pageWidth="827" pageHeight="1169" math="0" shadow="0">
      <root>
        <mxCell id="WIyWlLk6GJQsqaUBKTNV-0" />
        <mxCell id="WIyWlLk6GJQsqaUBKTNV-1" parent="WIyWlLk6GJQsqaUBKTNV-0" />
        <mxCell id="-yf44V-ZLwCHeTT0aBwK-2" value="Пользователь заполняет форму" style="rounded=1;whiteSpace=wrap;html=1;" vertex="1" parent="WIyWlLk6GJQsqaUBKTNV-1">
          <mxGeometry x="349" y="190" width="120" height="60" as="geometry" />
        </mxCell>
        <mxCell id="-yf44V-ZLwCHeTT0aBwK-3" value="" style="endArrow=classic;html=1;rounded=0;exitX=0.5;exitY=1;exitDx=0;exitDy=0;entryX=0.5;entryY=0;entryDx=0;entryDy=0;edgeStyle=orthogonalEdgeStyle;" edge="1" parent="WIyWlLk6GJQsqaUBKTNV-1" source="-yf44V-ZLwCHeTT0aBwK-2" target="-yf44V-ZLwCHeTT0aBwK-6">
          <mxGeometry width="50" height="50" relative="1" as="geometry">
            <mxPoint x="449" y="380" as="sourcePoint" />
            <mxPoint x="409" y="360" as="targetPoint" />
          </mxGeometry>
        </mxCell>
        <mxCell id="-yf44V-ZLwCHeTT0aBwK-5" value="name&lt;br&gt;email&lt;br&gt;card_number" style="edgeLabel;html=1;align=center;verticalAlign=middle;resizable=0;points=[];" vertex="1" connectable="0" parent="-yf44V-ZLwCHeTT0aBwK-3">
          <mxGeometry x="-0.4492" y="2" relative="1" as="geometry">
            <mxPoint x="-42" y="-22" as="offset" />
          </mxGeometry>
        </mxCell>
        <mxCell id="-yf44V-ZLwCHeTT0aBwK-6" value="Приходит чек на почту с QR-кодом" style="rounded=1;whiteSpace=wrap;html=1;" vertex="1" parent="WIyWlLk6GJQsqaUBKTNV-1">
          <mxGeometry x="269" y="360" width="120" height="60" as="geometry" />
        </mxCell>
        <mxCell id="-yf44V-ZLwCHeTT0aBwK-7" value="Записывается в бд" style="rounded=1;whiteSpace=wrap;html=1;" vertex="1" parent="WIyWlLk6GJQsqaUBKTNV-1">
          <mxGeometry x="439" y="360" width="120" height="60" as="geometry" />
        </mxCell>
        <mxCell id="-yf44V-ZLwCHeTT0aBwK-8" value="" style="endArrow=classic;html=1;rounded=0;exitX=0.5;exitY=1;exitDx=0;exitDy=0;entryX=0.5;entryY=0;entryDx=0;entryDy=0;edgeStyle=orthogonalEdgeStyle;jumpStyle=line;" edge="1" parent="WIyWlLk6GJQsqaUBKTNV-1" source="-yf44V-ZLwCHeTT0aBwK-2" target="-yf44V-ZLwCHeTT0aBwK-7">
          <mxGeometry width="50" height="50" relative="1" as="geometry">
            <mxPoint x="509" y="320" as="sourcePoint" />
            <mxPoint x="559" y="270" as="targetPoint" />
          </mxGeometry>
        </mxCell>
        <mxCell id="-yf44V-ZLwCHeTT0aBwK-9" value="Пользователь нажимает &quot;Заказать билет&quot;" style="rounded=1;whiteSpace=wrap;html=1;" vertex="1" parent="WIyWlLk6GJQsqaUBKTNV-1">
          <mxGeometry x="336" y="20" width="146" height="60" as="geometry" />
        </mxCell>
        <mxCell id="-yf44V-ZLwCHeTT0aBwK-10" value="Выбирает тип билета" style="rounded=1;whiteSpace=wrap;html=1;" vertex="1" parent="WIyWlLk6GJQsqaUBKTNV-1">
          <mxGeometry x="349" y="100" width="120" height="60" as="geometry" />
        </mxCell>
        <mxCell id="-yf44V-ZLwCHeTT0aBwK-11" value="" style="endArrow=classic;html=1;rounded=0;exitX=0.5;exitY=1;exitDx=0;exitDy=0;entryX=0.5;entryY=0;entryDx=0;entryDy=0;" edge="1" parent="WIyWlLk6GJQsqaUBKTNV-1" source="-yf44V-ZLwCHeTT0aBwK-9" target="-yf44V-ZLwCHeTT0aBwK-10">
          <mxGeometry width="50" height="50" relative="1" as="geometry">
            <mxPoint x="525" y="130" as="sourcePoint" />
            <mxPoint x="575" y="80" as="targetPoint" />
          </mxGeometry>
        </mxCell>
        <mxCell id="-yf44V-ZLwCHeTT0aBwK-12" value="" style="endArrow=classic;html=1;rounded=0;exitX=0.5;exitY=1;exitDx=0;exitDy=0;entryX=0.5;entryY=0;entryDx=0;entryDy=0;" edge="1" parent="WIyWlLk6GJQsqaUBKTNV-1" source="-yf44V-ZLwCHeTT0aBwK-10" target="-yf44V-ZLwCHeTT0aBwK-2">
          <mxGeometry width="50" height="50" relative="1" as="geometry">
            <mxPoint x="540" y="210" as="sourcePoint" />
            <mxPoint x="590" y="160" as="targetPoint" />
          </mxGeometry>
        </mxCell>
        <mxCell id="-yf44V-ZLwCHeTT0aBwK-13" value="Vertical Container" style="swimlane;whiteSpace=wrap;html=1;" vertex="1" parent="WIyWlLk6GJQsqaUBKTNV-1">
          <mxGeometry x="10" y="290" width="200" height="200" as="geometry">
            <mxRectangle x="30" y="310" width="140" height="30" as="alternateBounds" />
          </mxGeometry>
        </mxCell>
        <mxCell id="-yf44V-ZLwCHeTT0aBwK-19" value="&lt;h1&gt;Содержание чека&lt;/h1&gt;&lt;p&gt;- Имя&lt;/p&gt;&lt;p&gt;- Тип билета и его цена&lt;/p&gt;&lt;p&gt;- QR-код&lt;/p&gt;" style="text;html=1;strokeColor=none;fillColor=none;spacing=5;spacingTop=-20;whiteSpace=wrap;overflow=hidden;rounded=0;" vertex="1" parent="-yf44V-ZLwCHeTT0aBwK-13">
          <mxGeometry x="5" y="30" width="190" height="170" as="geometry" />
        </mxCell>
        <mxCell id="-yf44V-ZLwCHeTT0aBwK-15" value="" style="shape=flexArrow;endArrow=classic;startArrow=classic;html=1;rounded=0;exitX=1;exitY=0.5;exitDx=0;exitDy=0;entryX=0;entryY=0.5;entryDx=0;entryDy=0;" edge="1" parent="WIyWlLk6GJQsqaUBKTNV-1" source="-yf44V-ZLwCHeTT0aBwK-13" target="-yf44V-ZLwCHeTT0aBwK-6">
          <mxGeometry width="100" height="100" relative="1" as="geometry">
            <mxPoint x="190" y="470" as="sourcePoint" />
            <mxPoint x="290" y="370" as="targetPoint" />
          </mxGeometry>
        </mxCell>
        <mxCell id="-yf44V-ZLwCHeTT0aBwK-20" value="Текстовое уведомление о успешной отрпавке чека" style="rounded=1;whiteSpace=wrap;html=1;" vertex="1" parent="WIyWlLk6GJQsqaUBKTNV-1">
          <mxGeometry x="354" y="470" width="120" height="60" as="geometry" />
        </mxCell>
        <mxCell id="-yf44V-ZLwCHeTT0aBwK-21" value="" style="endArrow=classic;html=1;rounded=0;exitX=0.5;exitY=1;exitDx=0;exitDy=0;entryX=0.5;entryY=0;entryDx=0;entryDy=0;edgeStyle=orthogonalEdgeStyle;" edge="1" parent="WIyWlLk6GJQsqaUBKTNV-1" source="-yf44V-ZLwCHeTT0aBwK-6" target="-yf44V-ZLwCHeTT0aBwK-20">
          <mxGeometry width="50" height="50" relative="1" as="geometry">
            <mxPoint x="300" y="590" as="sourcePoint" />
            <mxPoint x="350" y="540" as="targetPoint" />
          </mxGeometry>
        </mxCell>
        <mxCell id="-yf44V-ZLwCHeTT0aBwK-22" value="" style="endArrow=classic;html=1;rounded=0;exitX=0.5;exitY=1;exitDx=0;exitDy=0;entryX=0.5;entryY=0;entryDx=0;entryDy=0;edgeStyle=orthogonalEdgeStyle;" edge="1" parent="WIyWlLk6GJQsqaUBKTNV-1" source="-yf44V-ZLwCHeTT0aBwK-7" target="-yf44V-ZLwCHeTT0aBwK-20">
          <mxGeometry width="50" height="50" relative="1" as="geometry">
            <mxPoint x="520" y="540" as="sourcePoint" />
            <mxPoint x="570" y="490" as="targetPoint" />
          </mxGeometry>
        </mxCell>
        <mxCell id="-yf44V-ZLwCHeTT0aBwK-23" value="Инофрмацию о билете возможно посмотреть ТОЛЬКО НА ПОЧТЕ" style="shape=callout;whiteSpace=wrap;html=1;perimeter=calloutPerimeter;size=10;position=0.09;position2=0;base=20;" vertex="1" parent="WIyWlLk6GJQsqaUBKTNV-1">
          <mxGeometry x="486" y="455" width="220" height="70" as="geometry" />
        </mxCell>
      </root>
    </mxGraphModel>
  </diagram>
</mxfile>
